<svg width="23" height="26" viewBox="0 0 23 26" fill="none" xmlns="http://www.w3.org/2000/svg">
<g clip-path="url(#clip0_178574_431)">
<g filter="url(#filter0_d_178574_431)">
<path d="M13.4166 12.9999C13.4166 11.5547 15.4905 10.5667 16.6111 8.66656C17.8889 6.49989 17.8889 1.44434 17.8889 1.44434H5.11108C5.11108 1.44434 5.11108 6.49989 6.38886 8.66656C7.50947 10.5667 9.58331 11.5547 9.58331 12.9999C9.58331 14.4451 7.50947 15.4331 6.38886 17.3332C5.11108 19.4999 5.11108 24.5554 5.11108 24.5554H17.8889C17.8889 24.5554 17.8889 19.4999 16.6111 17.3332C15.4905 15.4331 13.4166 14.4451 13.4166 12.9999Z" fill="#FFE8B6"/>
<path d="M17.3797 1.94434C17.3771 2.03537 17.3737 2.13721 17.3693 2.24848C17.3496 2.74871 17.3103 3.43723 17.2318 4.19119C17.0717 5.72951 16.7578 7.43349 16.1804 8.41257C15.7398 9.15966 15.1435 9.75161 14.5549 10.336C14.4488 10.4413 14.343 10.5464 14.2383 10.6521C13.9069 10.9869 13.581 11.336 13.3392 11.7075C13.0935 12.0849 12.9166 12.5118 12.9166 12.9999C12.9166 13.488 13.0935 13.9149 13.3392 14.2922C13.581 14.6638 13.9069 15.0129 14.2383 15.3477C14.343 15.4534 14.4488 15.5585 14.5549 15.6638C15.1435 16.2482 15.7398 16.8401 16.1804 17.5872C16.7578 18.5663 17.0717 20.2703 17.2318 21.8086C17.3103 22.5625 17.3496 23.2511 17.3693 23.7513C17.3737 23.8626 17.3771 23.9644 17.3797 24.0554H5.62025C5.62289 23.9644 5.62629 23.8626 5.63066 23.7513C5.65033 23.2511 5.68965 22.5625 5.76812 21.8086C5.92822 20.2703 6.24214 18.5663 6.81954 17.5872C7.26014 16.8401 7.85641 16.2482 8.44506 15.6638C8.55115 15.5585 8.65699 15.4534 8.76163 15.3477C9.09309 15.0129 9.41891 14.6638 9.66079 14.2922C9.90645 13.9149 10.0833 13.488 10.0833 12.9999C10.0833 12.5118 9.90645 12.0849 9.66079 11.7075C9.41891 11.336 9.09309 10.9869 8.76163 10.6521C8.65699 10.5464 8.55115 10.4413 8.44506 10.336C7.85641 9.75161 7.26014 9.15966 6.81954 8.41257C6.24214 7.43349 5.92822 5.72951 5.76812 4.19119C5.68965 3.43723 5.65033 2.74871 5.63066 2.24848C5.62629 2.13721 5.62289 2.03537 5.62025 1.94434H17.3797Z" stroke="black"/>
</g>
<path d="M13.4161 17.3332C12.7778 17.3332 12.1019 16.611 12.1019 15.8888C12.1389 14.6516 12.1389 13.8333 12.1389 12.9999C12.1389 10.6743 14.0773 9.70584 15.2695 7.94434H7.73058C8.92211 9.70584 10.8611 10.6743 10.8611 12.9999C10.8611 13.8341 10.8611 14.6531 10.8982 15.8888C10.8982 16.611 10.2222 17.3332 9.58336 17.3332C8.30558 17.3332 7.28655 18.6217 7.0278 19.4999C6.38892 21.6666 6.38892 24.5554 6.38892 24.5554H16.6111C16.6111 24.5554 16.6111 21.6666 15.9722 19.4999C15.7135 18.6217 14.6938 17.3332 13.4161 17.3332Z" fill="#FFAC33"/>
<path d="M18.6667 24.5556C18.6667 24.8245 18.5716 25.0719 18.418 25.2456C18.266 25.4174 18.074 25.5 17.8889 25.5H5.11115C4.92603 25.5 4.73406 25.4174 4.58212 25.2456C4.42843 25.0719 4.33337 24.8245 4.33337 24.5556C4.33337 24.2866 4.42843 24.0392 4.58212 23.8655C4.73406 23.6937 4.92604 23.6111 5.11115 23.6111H17.8889C18.074 23.6111 18.266 23.6937 18.418 23.8655C18.5716 24.0392 18.6667 24.2866 18.6667 24.5556ZM18.6667 1.44444C18.6667 1.71337 18.5716 1.96079 18.418 2.13453C18.266 2.30629 18.074 2.38889 17.8889 2.38889H5.11115C4.92603 2.38889 4.73406 2.30629 4.58212 2.13453C4.42843 1.96079 4.33337 1.71337 4.33337 1.44444C4.33337 1.17552 4.42843 0.928094 4.58212 0.754355C4.73406 0.582601 4.92603 0.5 5.11115 0.5H17.8889C18.074 0.5 18.266 0.582601 18.418 0.754355C18.5716 0.928095 18.6667 1.17552 18.6667 1.44444Z" fill="#3B88C3" stroke="black"/>
</g>
<defs>
<filter id="filter0_d_178574_431" x="3.11108" y="-0.555664" width="16.7778" height="27.1111" filterUnits="userSpaceOnUse" color-interpolation-filters="sRGB">
<feFlood flood-opacity="0" result="BackgroundImageFix"/>
<feColorMatrix in="SourceAlpha" type="matrix" values="0 0 0 0 0 0 0 0 0 0 0 0 0 0 0 0 0 0 127 0" result="hardAlpha"/>
<feOffset/>
<feGaussianBlur stdDeviation="1"/>
<feComposite in2="hardAlpha" operator="out"/>
<feColorMatrix type="matrix" values="0 0 0 0 0 0 0 0 0 0 0 0 0 0 0 0 0 0 0.5 0"/>
<feBlend mode="normal" in2="BackgroundImageFix" result="effect1_dropShadow_178574_431"/>
<feBlend mode="normal" in="SourceGraphic" in2="effect1_dropShadow_178574_431" result="shape"/>
</filter>
<clipPath id="clip0_178574_431">
<rect width="23" height="26" fill="white"/>
</clipPath>
</defs>
</svg>
