<svg width="62" height="62" viewBox="0 0 62 62" fill="none" xmlns="http://www.w3.org/2000/svg">
<g clip-path="url(#clip0_178493_498)">
<g filter="url(#filter0_d_178493_498)">
<path d="M47.9897 28.849C47.9897 18.0989 40.393 11.6475 30.8932 11.6475C21.3934 11.6475 13.9552 18.0989 13.9552 28.849C13.9552 34.8423 13.7778 40.0176 20.6667 42.4373V47.1252C20.6667 48.906 22.3303 50.3492 24.1111 50.3492C25.8936 50.3492 27.5556 48.906 27.5556 47.1252C27.5556 48.906 29.2175 50.3492 31 50.3492C32.7842 50.3492 34.4444 48.906 34.4444 47.1252C34.4444 48.906 36.1081 50.3492 37.8889 50.3492C39.6697 50.3492 41.3333 48.906 41.3333 47.1252V42.4373C48.2222 40.0176 47.9897 34.8423 47.9897 28.849Z" fill="#CCD6DD"/>
</g>
<path d="M23.4722 32.0746C26.4407 32.0746 28.8472 29.6681 28.8472 26.6995C28.8472 23.731 26.4407 21.3245 23.4722 21.3245C20.5036 21.3245 18.0971 23.731 18.0971 26.6995C18.0971 29.6681 20.5036 32.0746 23.4722 32.0746Z" fill="#292F33"/>
<path d="M43.896 26.6996C43.896 29.6687 43.896 32.0747 38.521 32.0747C33.1476 32.0747 33.1476 29.6687 33.1476 26.6996C33.1476 25.9939 33.2866 25.295 33.5567 24.643C33.8268 23.991 34.2226 23.3985 34.7217 22.8995C35.2207 22.4005 35.8132 22.0046 36.4652 21.7345C37.1172 21.4644 37.8161 21.3254 38.5218 21.3254C39.2276 21.3254 39.9264 21.4644 40.5784 21.7345C41.2305 22.0046 41.8229 22.4005 42.3219 22.8995C42.821 23.3985 43.2168 23.991 43.4869 24.643C43.757 25.295 43.896 25.9939 43.896 26.6996ZM33.0443 36.4405C32.7739 35.7826 31.9662 35.3004 30.9966 35.3004C30.0304 35.3004 29.221 35.7826 28.9506 36.4405C28.6838 36.5145 28.4406 36.6561 28.2445 36.8516C28.0485 37.0471 27.9062 37.2899 27.8315 37.5565C27.7567 37.823 27.7521 38.1044 27.818 38.3733C27.8838 38.6422 28.018 38.8896 28.2075 39.0915C28.397 39.2934 28.6353 39.4429 28.8996 39.5256C29.1638 39.6084 29.4449 39.6215 29.7157 39.5638C29.9864 39.5061 30.2377 39.3795 30.4452 39.1962C30.6528 39.0129 30.8094 38.7791 30.9001 38.5175C30.9328 38.5175 30.9638 38.5244 30.9966 38.5244C31.0293 38.5244 31.0603 38.5175 31.0947 38.5175C31.1854 38.7791 31.3421 39.0129 31.5496 39.1962C31.7571 39.3795 32.0084 39.5061 32.2792 39.5638C32.55 39.6215 32.8311 39.6084 33.0953 39.5256C33.3595 39.4429 33.5979 39.2934 33.7874 39.0915C33.9769 38.8896 34.111 38.6422 34.1769 38.3733C34.2428 38.1044 34.2381 37.823 34.1634 37.5565C34.0887 37.2899 33.9464 37.0471 33.7503 36.8516C33.5543 36.6561 33.3111 36.5145 33.0443 36.4405Z" fill="#292F33"/>
<g filter="url(#filter1_d_178493_498)">
<path d="M18.9444 46.5C18.9444 45.8679 19.0736 45.2721 19.2803 44.7123C17.5856 43.9425 16.1269 42.8489 14.9696 41.3196C13.1859 42.8799 11.3907 44.4271 9.58417 45.9609C8.55625 45.1954 7.30944 44.7806 6.02778 44.7778C4.42911 44.7778 2.89592 45.4128 1.7655 46.5433C0.635068 47.6737 0 49.2069 0 50.8056C0.00282889 52.2651 0.536763 53.6736 1.50211 54.7683C2.46745 55.8629 3.7982 56.5688 5.24589 56.7541C5.43085 58.2019 6.13662 59.5329 7.23135 60.4983C8.32607 61.4637 9.73485 61.9975 11.1944 62C12.7931 62 14.3263 61.3649 15.4567 60.2345C16.5872 59.1041 17.2222 57.5709 17.2222 55.9722C17.2222 54.6375 16.7744 53.4147 16.0408 52.4158C17.0741 51.1999 18.1867 49.9014 19.3664 48.5408C19.0878 47.8965 18.9442 47.202 18.9444 46.5ZM48.0018 19.8366C49.5242 18.5122 50.9795 17.2618 52.3332 16.1114C53.3452 16.833 54.557 17.2213 55.8 17.2222C57.3987 17.2222 58.9319 16.5872 60.0623 15.4567C61.1927 14.3263 61.8278 12.7931 61.8278 11.1944C61.8261 9.76406 61.3146 8.38113 60.3849 7.29402C59.4553 6.2069 58.1686 5.48682 56.7558 5.26311C56.5747 3.81186 55.8703 2.47653 54.7749 1.50757C53.6794 0.538611 52.2681 0.00257659 50.8056 0C49.2069 0 47.6737 0.635068 46.5433 1.7655C45.4128 2.89592 44.7778 4.42911 44.7778 6.02778C44.7778 7.3625 45.2256 8.58528 45.9609 9.58417C44.9379 10.7897 43.8374 12.0728 42.6698 13.4196C44.9087 14.9196 46.7359 17.0276 48.0018 19.8366ZM6.02778 17.2222C7.30944 17.2194 8.55625 16.8046 9.58417 16.0391C10.9602 17.2084 12.4448 18.4829 13.9999 19.8348C15.2658 17.0259 17.0913 14.9179 19.3319 13.4178C18.2276 12.1457 17.1299 10.8678 16.0391 9.58417C16.8046 8.55625 17.2194 7.30944 17.2222 6.02778C17.2222 4.42911 16.5872 2.89592 15.4567 1.7655C14.3263 0.635068 12.7931 0 11.1944 0C9.73495 0.00282889 8.32637 0.536763 7.23173 1.50211C6.13708 2.46745 5.4312 3.7982 5.24589 5.24589C3.7982 5.4312 2.46745 6.13708 1.50211 7.23173C0.536763 8.32637 0.00282889 9.73495 0 11.1944C0 12.7931 0.635068 14.3263 1.7655 15.4567C2.89592 16.5872 4.42911 17.2222 6.02778 17.2222ZM55.8 44.7778C54.5049 44.7778 53.3131 45.1946 52.3314 45.8886C50.6919 44.4953 48.9042 42.9591 47.0287 41.3196C45.8714 42.8506 44.4127 43.9425 42.718 44.7141C42.9264 45.2721 43.0556 45.8679 43.0556 46.5C43.0556 47.2251 42.904 47.9139 42.6336 48.5408C43.8133 49.9014 44.9259 51.1999 45.9592 52.4158C45.1948 53.4442 44.7807 54.6908 44.7778 55.9722C44.7778 59.303 47.4748 62 50.8056 62C52.2682 61.9978 53.6797 61.4619 54.7753 60.4929C55.8708 59.5238 56.5751 58.1883 56.7558 56.7369C58.1686 56.5132 59.4553 55.7931 60.3849 54.706C61.3146 53.6189 61.8261 52.2359 61.8278 50.8056C61.8278 47.4748 59.1308 44.7778 55.8 44.7778Z" fill="#AAB8C2"/>
</g>
</g>
<defs>
<filter id="filter0_d_178493_498" x="11.9547" y="9.64746" width="40.0359" height="44.7017" filterUnits="userSpaceOnUse" color-interpolation-filters="sRGB">
<feFlood flood-opacity="0" result="BackgroundImageFix"/>
<feColorMatrix in="SourceAlpha" type="matrix" values="0 0 0 0 0 0 0 0 0 0 0 0 0 0 0 0 0 0 127 0" result="hardAlpha"/>
<feOffset dx="1" dy="1"/>
<feGaussianBlur stdDeviation="1.5"/>
<feComposite in2="hardAlpha" operator="out"/>
<feColorMatrix type="matrix" values="0 0 0 0 0 0 0 0 0 0 0 0 0 0 0 0 0 0 0.25 0"/>
<feBlend mode="normal" in2="BackgroundImageFix" result="effect1_dropShadow_178493_498"/>
<feBlend mode="normal" in="SourceGraphic" in2="effect1_dropShadow_178493_498" result="shape"/>
</filter>
<filter id="filter1_d_178493_498" x="-2" y="-2" width="67.8278" height="68" filterUnits="userSpaceOnUse" color-interpolation-filters="sRGB">
<feFlood flood-opacity="0" result="BackgroundImageFix"/>
<feColorMatrix in="SourceAlpha" type="matrix" values="0 0 0 0 0 0 0 0 0 0 0 0 0 0 0 0 0 0 127 0" result="hardAlpha"/>
<feOffset dx="1" dy="1"/>
<feGaussianBlur stdDeviation="1.5"/>
<feComposite in2="hardAlpha" operator="out"/>
<feColorMatrix type="matrix" values="0 0 0 0 0 0 0 0 0 0 0 0 0 0 0 0 0 0 0.25 0"/>
<feBlend mode="normal" in2="BackgroundImageFix" result="effect1_dropShadow_178493_498"/>
<feBlend mode="normal" in="SourceGraphic" in2="effect1_dropShadow_178493_498" result="shape"/>
</filter>
<clipPath id="clip0_178493_498">
<rect width="62" height="62" fill="white"/>
</clipPath>
</defs>
</svg>
