<svg width="38" height="36" viewBox="0 0 38 36" fill="none" xmlns="http://www.w3.org/2000/svg">
<path d="M5.36685 36C4.82401 36 4.3034 35.7893 3.91956 35.4142C3.53571 35.0391 3.32007 34.5304 3.32007 34V3C3.32007 2.46957 3.53571 1.96086 3.91956 1.58579C4.3034 1.21071 4.82401 1 5.36685 1C5.90969 1 6.4303 1.21071 6.81415 1.58579C7.19799 1.96086 7.41364 2.46957 7.41364 3V34C7.41364 34.5304 7.19799 35.0391 6.81415 35.4142C6.4303 35.7893 5.90969 36 5.36685 36Z" fill="#8899A6"/>
<path d="M5.36685 1C4.82401 1 4.3034 1.21071 3.91956 1.58579C3.53571 1.96086 3.32007 2.46957 3.32007 3V34C3.32007 34.1326 3.37398 34.2598 3.46994 34.3536C3.5659 34.4473 3.69605 34.5 3.83176 34.5C3.96747 34.5 4.09763 34.4473 4.19359 34.3536C4.28955 34.2598 4.34346 34.1326 4.34346 34V4.414C4.34346 3.633 4.99127 3 5.79054 3H7.41364C7.41364 2.46957 7.19799 1.96086 6.81415 1.58579C6.4303 1.21071 5.90969 1 5.36685 1Z" fill="#AAB8C2"/>
<path d="M5.36685 36C4.82401 36 4.3034 35.7893 3.91956 35.4142C3.53571 35.0391 3.32007 34.5304 3.32007 34V3C3.32007 2.46957 3.53571 1.96086 3.91956 1.58579C4.3034 1.21071 4.82401 1 5.36685 1C5.90969 1 6.4303 1.21071 6.81415 1.58579C7.19799 1.96086 7.41364 2.46957 7.41364 3V34C7.41364 34.5304 7.19799 35.0391 6.81415 35.4142C6.4303 35.7893 5.90969 36 5.36685 36Z" fill="#8899A6"/>
<path d="M5.36685 1C4.82401 1 4.3034 1.21071 3.91956 1.58579C3.53571 1.96086 3.32007 2.46957 3.32007 3V34C3.32007 34.1326 3.37398 34.2598 3.46994 34.3536C3.5659 34.4473 3.69605 34.5 3.83176 34.5C3.96747 34.5 4.09763 34.4473 4.19359 34.3536C4.28955 34.2598 4.34346 34.1326 4.34346 34V4.414C4.34346 3.633 4.99127 3 5.79054 3H7.41364C7.41364 2.46957 7.19799 1.96086 6.81415 1.58579C6.4303 1.21071 5.90969 1 5.36685 1Z" fill="#AAB8C2"/>
<path d="M33.4233 3.09008C31.6303 2.29108 29.7237 1.90308 27.592 1.90308C25.0151 1.90308 22.4546 2.47308 19.98 3.02508C17.5054 3.57608 15.168 4.09708 12.8214 4.09708C10.9895 4.09708 9.36026 3.76808 7.8395 3.09108C7.68363 3.0214 7.51233 2.99109 7.34135 3.00295C7.17037 3.0148 7.00517 3.06843 6.86092 3.15891C6.71667 3.2494 6.59799 3.37384 6.51578 3.52081C6.43356 3.66778 6.39044 3.83258 6.39038 4.00008V23.0001C6.39038 23.3921 6.62474 23.7471 6.98907 23.9101C8.78205 24.7091 10.6896 25.0971 12.8204 25.0971C15.3973 25.0971 17.9578 24.5271 20.4323 23.9751C22.9069 23.4241 25.2443 22.9041 27.591 22.9041C29.4228 22.9041 31.0531 23.2331 32.5728 23.9111C32.7289 23.98 32.9002 24.0097 33.071 23.9973C33.2419 23.985 33.4068 23.9311 33.5509 23.8406C33.6949 23.75 33.8135 23.6257 33.8958 23.4788C33.9781 23.332 34.0214 23.1675 34.022 23.0001V4.00008C34.022 3.80826 33.9656 3.62049 33.8594 3.45914C33.7533 3.29779 33.6019 3.16968 33.4233 3.09008Z" fill="#E1E8ED"/>
</svg>
