<svg width="68" height="68" viewBox="0 0 68 68" fill="none" xmlns="http://www.w3.org/2000/svg">
<path d="M41.2623 34.0041L66.412 8.85643C67.3481 7.88723 67.8661 6.58913 67.8544 5.24173C67.8427 3.89433 67.3022 2.60543 66.3494 1.65264C65.3966 0.699849 64.1077 0.159397 62.7603 0.147689C61.4129 0.13598 60.1148 0.653952 59.1456 1.59004L33.9959 26.7377L8.84824 1.59004C8.37134 1.11253 7.80499 0.733705 7.18158 0.475241C6.55816 0.216776 5.88991 0.0837402 5.21504 0.0837402C4.54017 0.0837402 3.87192 0.216776 3.24851 0.475241C2.62509 0.733705 2.05874 1.11253 1.58185 1.59004C1.10433 2.06694 0.725513 2.63329 0.467048 3.2567C0.208584 3.88012 0.0755481 4.54837 0.0755481 5.22324C0.0755481 5.89811 0.208584 6.56636 0.467048 7.18977C0.725513 7.81319 1.10433 8.37954 1.58185 8.85643L26.7295 34.0041L1.52429 59.2114C0.804106 59.9294 0.313352 60.8451 0.114257 61.8424C-0.0848391 62.8397 0.0166908 63.8737 0.405973 64.8132C0.795255 65.7527 1.45476 66.5555 2.30086 67.1197C3.14696 67.6839 4.14154 67.9842 5.15852 67.9824C6.47407 67.9824 7.78963 67.4809 8.79274 66.4778L33.998 41.2705L59.1456 66.4182C59.6224 66.896 60.189 67.2748 60.8126 67.5331C61.4363 67.7913 62.1048 67.9237 62.7799 67.9228C63.7959 67.9226 64.7892 67.6212 65.634 67.0566C66.4788 66.4921 67.1373 65.6897 67.5262 64.751C67.9152 63.8123 68.0171 62.7794 67.8192 61.7828C67.6212 60.7861 67.1322 59.8706 66.4141 59.1518L41.2623 34.0041Z" fill="#DD2E44"/>
</svg>
